<svg width="452" height="283" viewBox="0 0 452 283" fill="none" xmlns="http://www.w3.org/2000/svg">
<path d="M450 281V262.036H415.261L345.784 42.2749L391.729 1L4 281H450Z" fill="black" stroke="black" stroke-width="2.23016"/>
<path d="M189.103 217.325V192.794L245.785 154.881C264.97 166.478 266.133 202.829 264.316 219.555C261.046 232.193 248.838 257.468 226.165 257.468C203.492 257.468 192.01 230.706 189.103 217.325Z" fill="white"/>
<ellipse cx="227.016" cy="206.175" rx="15.6111" ry="20.0714" fill="black"/>
<path d="M360.825 195.024V159.342L300.122 130.35C280.497 141.946 279.307 178.298 281.166 195.024C284.511 207.662 297 232.937 320.194 232.937C343.387 232.937 357.852 208.405 360.825 195.024Z" fill="white"/>
<ellipse cx="320.611" cy="175.071" rx="15.6111" ry="20.0714" fill="black"/>
</svg>
