<svg width="20" height="18" viewBox="0 0 20 18" fill="none" xmlns="http://www.w3.org/2000/svg">
<path d="M3.76282 12.7947H18V1.82781H2V14.0606L3.76282 12.7947ZM4.45455 14.6225L0 17.8212V0.913907C0 0.409175 0.44772 0 1 0H19C19.5523 0 20 0.409175 20 0.913907V13.7086C20 14.2134 19.5523 14.6225 19 14.6225H4.45455ZM9 10.053H11V11.8808H9V10.053ZM6.56731 5.31296C6.88637 3.84681 8.302 2.74172 10 2.74172C11.933 2.74172 13.5 4.17381 13.5 5.9404C13.5 7.70698 11.933 9.13907 10 9.13907H9V7.31126H10C10.8284 7.31126 11.5 6.69748 11.5 5.9404C11.5 5.18329 10.8284 4.56954 10 4.56954C9.2723 4.56954 8.6656 5.04315 8.5288 5.6715L6.56731 5.31296Z" fill="#FF4A50"/>
</svg>
