<svg width="77" height="13" viewBox="0 0 77 13" fill="none" xmlns="http://www.w3.org/2000/svg">
<path d="M5.68334 12.3817H2.42885L2.449 10.1259H5.68334C6.35506 10.1259 6.92267 9.9922 7.38615 9.72484C7.85636 9.45748 8.21237 9.05922 8.45419 8.53007C8.70273 7.99535 8.82699 7.33808 8.82699 6.55828V6.03191C8.82699 5.44706 8.75646 4.93461 8.6154 4.49458C8.48106 4.04898 8.27954 3.67857 8.01085 3.38336C7.74217 3.08258 7.4063 2.85699 7.00327 2.7066C6.60696 2.55621 6.15019 2.48101 5.63296 2.48101H2.3684V0.216797H5.63296C6.62711 0.216797 7.53729 0.358833 8.36351 0.642904C9.19644 0.921406 9.91518 1.32245 10.5197 1.84603C11.131 2.36404 11.6012 2.97953 11.9303 3.6925C12.2662 4.39989 12.4341 5.18526 12.4341 6.04862V6.55828C12.4341 7.41606 12.2662 8.20144 11.9303 8.9144C11.6012 9.62736 11.1344 10.2429 10.5298 10.7609C9.92526 11.2789 9.20988 11.6799 8.38366 11.964C7.56416 12.2425 6.66405 12.3817 5.68334 12.3817ZM4.45409 0.216797V12.3817H0.91748V0.216797H4.45409Z" fill="white"/>
<path d="M20.2731 2.77344L16.6962 12.3817H12.8976L18.2882 0.216797H20.6963L20.2731 2.77344ZM23.2354 12.3817L19.6484 2.77344L19.1849 0.216797H21.6233L27.0441 12.3817H23.2354ZM23.0943 7.84495V10.1092H15.5677V7.84495H23.0943Z" fill="white"/>
<path d="M38.2181 10.1259V12.3817H30.3993V10.1259H38.2181ZM31.6588 0.216797V12.3817H28.1222V0.216797H31.6588ZM37.2106 5.04601V7.22668H30.3993V5.04601H37.2106ZM38.2484 0.216797V2.48101H30.3993V0.216797H38.2484Z" fill="white"/>
<path d="M44.4349 12.3817H41.1804L41.2006 10.1259H44.4349C45.1066 10.1259 45.6742 9.9922 46.1377 9.72484C46.6079 9.45748 46.964 9.05922 47.2058 8.53007C47.4543 7.99535 47.5786 7.33808 47.5786 6.55828V6.03191C47.5786 5.44706 47.508 4.93461 47.367 4.49458C47.2326 4.04898 47.0311 3.67857 46.7624 3.38336C46.4937 3.08258 46.1579 2.85699 45.7549 2.7066C45.3585 2.55621 44.9018 2.48101 44.3845 2.48101H41.12V0.216797H44.3845C45.3787 0.216797 46.2889 0.358833 47.1151 0.642904C47.948 0.921406 48.6668 1.32245 49.2713 1.84603C49.8826 2.36404 50.3528 2.97953 50.6819 3.6925C51.0178 4.39989 51.1857 5.18526 51.1857 6.04862V6.55828C51.1857 7.41606 51.0178 8.20144 50.6819 8.9144C50.3528 9.62736 49.8859 10.2429 49.2814 10.7609C48.6768 11.2789 47.9615 11.6799 47.1352 11.964C46.3157 12.2425 45.4156 12.3817 44.4349 12.3817ZM43.2057 0.216797V12.3817H39.6691V0.216797H43.2057Z" fill="white"/>
<path d="M59.0247 2.77344L55.4478 12.3817H51.6492L57.0398 0.216797H59.4479L59.0247 2.77344ZM61.987 12.3817L58.4 2.77344L57.9365 0.216797H60.3749L65.7956 12.3817H61.987ZM61.8459 7.84495V10.1092H54.3193V7.84495H61.8459Z" fill="white"/>
<path d="M76.9697 10.1259V12.3817H69.1509V10.1259H76.9697ZM70.4104 0.216797V12.3817H66.8738V0.216797H70.4104ZM75.9622 5.04601V7.22668H69.1509V5.04601H75.9622ZM77 0.216797V2.48101H69.1509V0.216797H77Z" fill="white"/>
</svg>
