<svg width="120" height="130" viewBox="0 0 120 130" fill="none" xmlns="http://www.w3.org/2000/svg">
<rect width="120" height="130" rx="8" fill="#F4F4F4"/>
<path d="M51 54.5H63V57.5H51V54.5ZM51 47H69V50H51V47ZM51 62H58.5V65H51V62Z" fill="#645E5E"/>
<path d="M73.5 35H69V33.5C69 32.7044 68.6839 31.9413 68.1213 31.3787C67.5587 30.8161 66.7956 30.5 66 30.5H54C53.2044 30.5 52.4413 30.8161 51.8787 31.3787C51.3161 31.9413 51 32.7044 51 33.5V35H46.5C45.7044 35 44.9413 35.3161 44.3787 35.8787C43.8161 36.4413 43.5 37.2044 43.5 38V69.5C43.5 70.2957 43.8161 71.0587 44.3787 71.6213C44.9413 72.1839 45.7044 72.5 46.5 72.5H73.5C74.2956 72.5 75.0587 72.1839 75.6213 71.6213C76.1839 71.0587 76.5 70.2957 76.5 69.5V38C76.5 37.2044 76.1839 36.4413 75.6213 35.8787C75.0587 35.3161 74.2956 35 73.5 35ZM54 33.5H66V39.5H54V33.5ZM73.5 69.5H46.5V38H51V42.5H69V38H73.5V69.5Z" fill="#645E5E"/>
<path d="M41.3145 88.6426V89.5176C41.3145 90.625 41.3145 92.1699 40.9727 94.3027L39.4688 94.1797C39.7627 92.3066 39.7969 90.9258 39.8105 89.8594H34.957V88.6426H41.3145ZM38.1973 92.1699V95.8203C39.4551 95.7725 40.7471 95.6836 41.9297 95.5332L42.0117 96.668C39.4551 97.0781 36.625 97.1328 34.4512 97.1191L34.3008 95.9023C35.0322 95.8955 35.8457 95.8887 36.6934 95.8613V92.1699H38.1973ZM44.1035 87.3574V92.3887H45.8945V93.6738H44.1035V99.7168H42.5723V87.3574H44.1035ZM57.1465 87.3574V99.7168H55.6973V87.3574H57.1465ZM54.6309 87.5898V99.1152H53.1953V92.8945H51.418V91.6641H53.1953V87.5898H54.6309ZM50.3242 90.7344C50.3242 92.8262 51.0762 94.918 52.8398 95.9297L51.9375 97.0508C50.7959 96.3672 50.0371 95.1914 49.6133 93.7832C49.1758 95.3076 48.3896 96.6064 47.2207 97.3379L46.291 96.2031C48.082 95.123 48.8613 92.8809 48.8613 90.7344V89.9141H46.7148V88.6836H52.3203V89.9141H50.3242V90.7344ZM72.5684 87.3574V99.7168H71.1191V87.3574H72.5684ZM70.0527 87.5898V99.1152H68.6172V92.8945H66.8398V91.6641H68.6172V87.5898H70.0527ZM65.7461 90.7344C65.7461 92.8262 66.498 94.918 68.2617 95.9297L67.3594 97.0508C66.2178 96.3672 65.459 95.1914 65.0352 93.7832C64.5977 95.3076 63.8115 96.6064 62.6426 97.3379L61.7129 96.2031C63.5039 95.123 64.2832 92.8809 64.2832 90.7344V89.9141H62.1367V88.6836H67.7422V89.9141H65.7461V90.7344ZM85.2695 92.7031V93.8242H80.4023V94.7266H83.8887V97.625H76.8613V98.4727H84.2305V99.6074H75.3711V96.5859H82.3984V95.8203H75.3574V94.7266H78.8984V93.8242H74.0586V92.7031H85.2695ZM80.4023 87.3301V88.3691H84.1895V89.5039H80.5664C80.8604 90.3789 82.2959 91.0352 84.7637 91.1582L84.3125 92.293C82.0977 92.1562 80.4297 91.5547 79.6504 90.5566C78.8711 91.5547 77.21 92.1562 74.9746 92.293L74.5508 91.1582C76.9912 91.0352 78.4268 90.3789 78.748 89.5039H75.1387V88.3691H78.8984V87.3301H80.4023Z" fill="#121121"/>
</svg>
