<svg width="120" height="130" viewBox="0 0 120 130" fill="none" xmlns="http://www.w3.org/2000/svg">
<rect width="120" height="130" rx="8" fill="#F4F4F4"/>
<path d="M69.5 36.22C73.54 40.62 73.54 46.72 69.5 50.76L66.14 47.38C67.82 45.02 67.82 41.96 66.14 39.6L69.5 36.22ZM76.12 29.5C84 37.6 83.92 49.72 76.12 57.5L72.86 54.24C78.4 47.88 78.4 38.8 72.86 32.76L76.12 29.5ZM54 35.5C58.4 35.5 62 39.08 62 43.5C62 47.92 58.4 51.5 54 51.5C49.6 51.5 46 47.92 46 43.5C46 39.08 49.58 35.5 54 35.5ZM62 56.58C62 58.7 61.42 63.64 57.6 69.16L56 59.5L57.86 55.74C56.62 55.6 55.32 55.5 54 55.5C52.68 55.5 51.34 55.6 50.1 55.74L52 59.5L50.36 69.16C46.54 63.64 46 58.7 46 56.58C41.2 57.98 37.988 60.5 37.988 63.5V71.5H70V63.5C70 60.5 66.78 57.98 62 56.58Z" fill="#645E5E"/>
<path d="M44.7051 87.3711V94.3574H43.1738V87.3711H44.7051ZM44.7051 94.9727V99.5664H36.502V94.9727H44.7051ZM38.0059 96.1758V98.3359H43.2148V96.1758H38.0059ZM39.0176 89.0391C39.0176 90.6113 40.0703 92.0879 41.998 92.7031L41.2598 93.8652C39.8311 93.4209 38.8057 92.5117 38.252 91.3223C37.6846 92.6006 36.6455 93.6191 35.1621 94.1113L34.4102 92.9082C36.4199 92.2656 37.4453 90.666 37.4453 89.0391V87.8359H39.0176V89.0391ZM57.7754 93.5098V94.7402H46.5098V93.5098H57.7754ZM52.8809 87.3848V88.5059H56.668V89.709H53.0039C53.1885 90.7207 54.6445 91.5684 57.2148 91.7461L56.75 92.9082C54.5352 92.7373 52.9014 92.0469 52.1289 90.9805C51.3564 92.0469 49.709 92.7373 47.5078 92.9082L47.043 91.7461C49.5996 91.5684 51.0557 90.7207 51.2539 89.709H47.6172V88.5059H51.377V87.3848H52.8809ZM52.1289 95.5332C54.8223 95.5332 56.3945 96.2715 56.4082 97.625C56.3945 98.9648 54.8223 99.7031 52.1289 99.7031C49.4219 99.7031 47.8223 98.9648 47.8223 97.625C47.8223 96.2715 49.4219 95.5332 52.1289 95.5332ZM52.1289 96.668C50.3105 96.668 49.3535 96.9824 49.3672 97.625C49.3535 98.2539 50.3105 98.5684 52.1289 98.5684C53.9062 98.5684 54.877 98.2539 54.8906 97.625C54.877 96.9824 53.9062 96.668 52.1289 96.668ZM68.2754 88.3965V89.3809H70.7637V87.3711H72.2812V96.3672H70.7637V93.25H68.2754V94.3164H62.4648V88.3965H68.2754ZM63.9824 89.5996V93.127H66.7715V89.5996H63.9824ZM72.5547 98.2402V99.4707H64.1328V95.5332H65.6777V98.2402H72.5547ZM68.2754 92.0332H70.7637V90.625H68.2754V92.0332ZM84.3809 87.3574V94.0977H82.8633V91.459H80.7305V90.2012H82.8633V87.3574H84.3809ZM77.75 94.6172V95.9023H82.8633V94.6172H84.3809V99.5664H76.2324V94.6172H77.75ZM77.75 98.3359H82.8633V97.0918H77.75V98.3359ZM81.127 87.9863V89.2305H78.5703C78.584 90.7139 79.582 92.2451 81.4824 92.8809L80.7168 94.0566C79.3359 93.5781 78.3584 92.6484 77.8184 91.4863C77.2715 92.7783 76.2461 93.8174 74.7832 94.3164L74.0039 93.1133C75.959 92.4502 77.0117 90.8506 77.0254 89.2305H74.4551V87.9863H81.127Z" fill="#121121"/>
</svg>
