<svg width="120" height="130" viewBox="0 0 120 130" fill="none" xmlns="http://www.w3.org/2000/svg">
<rect width="120" height="130" rx="8" fill="#F4F4F4"/>
<path d="M51 54.5H63V57.5H51V54.5ZM51 47H69V50H51V47ZM51 62H58.5V65H51V62Z" fill="#645E5E"/>
<path d="M73.5 35H69V33.5C69 32.7044 68.6839 31.9413 68.1213 31.3787C67.5587 30.8161 66.7956 30.5 66 30.5H54C53.2044 30.5 52.4413 30.8161 51.8787 31.3787C51.3161 31.9413 51 32.7044 51 33.5V35H46.5C45.7044 35 44.9413 35.3161 44.3787 35.8787C43.8161 36.4413 43.5 37.2044 43.5 38V69.5C43.5 70.2957 43.8161 71.0587 44.3787 71.6213C44.9413 72.1839 45.7044 72.5 46.5 72.5H73.5C74.2956 72.5 75.0587 72.1839 75.6213 71.6213C76.1839 71.0587 76.5 70.2957 76.5 69.5V38C76.5 37.2044 76.1839 36.4413 75.6213 35.8787C75.0587 35.3161 74.2956 35 73.5 35ZM54 33.5H66V39.5H54V33.5ZM73.5 69.5H46.5V38H51V42.5H69V38H73.5V69.5Z" fill="#645E5E"/>
<path d="M33.0723 90.8711C33.0723 92.8945 34.2617 95.0273 36.2578 95.8613L35.4238 97.0645C33.9609 96.4355 32.8945 95.1367 32.334 93.5645C31.7598 95.2598 30.6797 96.6816 29.2305 97.3652L28.3555 96.1758C30.3105 95.2734 31.5273 92.9766 31.5273 90.8711V89.832H28.8066V88.5742H35.7793V89.832H33.0723V90.8711ZM38.6914 87.3574V99.7168H37.1602V87.3574H38.6914ZM50.873 87.3711V96.7227H49.3418V95.6426H46.9219V94.5762H49.3418V87.3711H50.873ZM51.1602 98.2402V99.4707H42.0957V95.8203H43.6133V98.2402H51.1602ZM40.4551 92.9219C42.7383 92.9082 45.8008 92.8809 48.4258 92.5527L48.5078 93.6465C47.4893 93.8174 46.4365 93.9336 45.3906 94.002V96.3809H43.873V94.084C42.7178 94.1318 41.6172 94.1387 40.6465 94.1387L40.4551 92.9219ZM44.4883 87.8223C46.293 87.8223 47.5508 88.7109 47.5645 90.0098C47.5508 91.3359 46.293 92.1836 44.4883 92.1836C42.6562 92.1836 41.3984 91.3359 41.3984 90.0098C41.3984 88.7109 42.6562 87.8223 44.4883 87.8223ZM44.4883 88.9434C43.5039 88.9434 42.834 89.3398 42.834 90.0098C42.834 90.6797 43.5039 91.0762 44.4883 91.0762C45.4316 91.0762 46.1016 90.6797 46.1152 90.0098C46.1016 89.3398 45.4316 88.9434 44.4883 88.9434ZM57.1758 90.3242C57.1758 92.6211 58.2695 94.877 60.2383 95.7383L59.3223 96.9551C57.9209 96.2715 56.9365 94.959 56.4102 93.3457C55.8701 95.0479 54.8652 96.4629 53.4434 97.1875L52.4863 95.957C54.4961 95.0137 55.6172 92.6348 55.6309 90.3242V88.3555H57.1758V90.3242ZM62.9727 87.3574V99.7305H61.4688V92.5801H58.8711V91.3496H61.4688V87.3574H62.9727ZM78.3809 87.3574V94.0977H76.8633V91.459H74.7305V90.2012H76.8633V87.3574H78.3809ZM71.75 94.6172V95.9023H76.8633V94.6172H78.3809V99.5664H70.2324V94.6172H71.75ZM71.75 98.3359H76.8633V97.0918H71.75V98.3359ZM75.127 87.9863V89.2305H72.5703C72.584 90.7139 73.582 92.2451 75.4824 92.8809L74.7168 94.0566C73.3359 93.5781 72.3584 92.6484 71.8184 91.4863C71.2715 92.7783 70.2461 93.8174 68.7832 94.3164L68.0039 93.1133C69.959 92.4502 71.0117 90.8506 71.0254 89.2305H68.4551V87.9863H75.127ZM86.5703 88.3828C86.5703 89.9414 88.3066 91.5137 90.9453 91.8555L90.3438 93.0859C88.2451 92.7715 86.5771 91.7393 85.7773 90.3379C84.9639 91.7393 83.3027 92.7715 81.2246 93.0859L80.623 91.8555C83.2344 91.5137 84.9707 89.9414 84.9707 88.3828V87.7539H86.5703V88.3828ZM91.3965 94.1523V95.4102H86.4883V99.7168H84.9844V95.4102H80.1309V94.1523H91.3965Z" fill="#121121"/>
</svg>
