<svg width="120" height="130" viewBox="0 0 120 130" fill="none" xmlns="http://www.w3.org/2000/svg">
<rect width="120" height="130" rx="8" fill="#F4F4F4"/>
<path d="M72.6 35.5H69V33.5C69 32.9696 68.8104 32.4609 68.4728 32.0858C68.1352 31.7107 67.6774 31.5 67.2 31.5C66.7226 31.5 66.2648 31.7107 65.9272 32.0858C65.5896 32.4609 65.4 32.9696 65.4 33.5V35.5H54.6V33.5C54.6 32.9696 54.4104 32.4609 54.0728 32.0858C53.7352 31.7107 53.2774 31.5 52.8 31.5C52.3226 31.5 51.8648 31.7107 51.5272 32.0858C51.1896 32.4609 51 32.9696 51 33.5V35.5H47.4C45.9678 35.5 44.5943 36.1321 43.5816 37.2574C42.5689 38.3826 42 39.9087 42 41.5V65.5C42 67.0913 42.5689 68.6174 43.5816 69.7426C44.5943 70.8679 45.9678 71.5 47.4 71.5H72.6C74.0322 71.5 75.4057 70.8679 76.4184 69.7426C77.4311 68.6174 78 67.0913 78 65.5V41.5C78 39.9087 77.4311 38.3826 76.4184 37.2574C75.4057 36.1321 74.0322 35.5 72.6 35.5ZM74.4 65.5C74.4 66.0304 74.2104 66.5391 73.8728 66.9142C73.5352 67.2893 73.0774 67.5 72.6 67.5H47.4C46.9226 67.5 46.4648 67.2893 46.1272 66.9142C45.7896 66.5391 45.6 66.0304 45.6 65.5V51.5H74.4V65.5ZM74.4 47.5H45.6V41.5C45.6 40.9696 45.7896 40.4609 46.1272 40.0858C46.4648 39.7107 46.9226 39.5 47.4 39.5H51V41.5C51 42.0304 51.1896 42.5391 51.5272 42.9142C51.8648 43.2893 52.3226 43.5 52.8 43.5C53.2774 43.5 53.7352 43.2893 54.0728 42.9142C54.4104 42.5391 54.6 42.0304 54.6 41.5V39.5H65.4V41.5C65.4 42.0304 65.5896 42.5391 65.9272 42.9142C66.2648 43.2893 66.7226 43.5 67.2 43.5C67.6774 43.5 68.1352 43.2893 68.4728 42.9142C68.8104 42.5391 69 42.0304 69 41.5V39.5H72.6C73.0774 39.5 73.5352 39.7107 73.8728 40.0858C74.2104 40.4609 74.4 40.9696 74.4 41.5V47.5Z" fill="#645E5E"/>
<path d="M26.7539 84.3965V85.3809H29.2422V83.3711H30.7598V92.3672H29.2422V89.25H26.7539V90.3164H20.9434V84.3965H26.7539ZM22.4609 85.5996V89.127H25.25V85.5996H22.4609ZM31.0332 94.2402V95.4707H22.6113V91.5332H24.1562V94.2402H31.0332ZM26.7539 88.0332H29.2422V86.625H26.7539V88.0332ZM42.8594 83.3574V90.0977H41.3418V87.459H39.209V86.2012H41.3418V83.3574H42.8594ZM36.2285 90.6172V91.9023H41.3418V90.6172H42.8594V95.5664H34.7109V90.6172H36.2285ZM36.2285 94.3359H41.3418V93.0918H36.2285V94.3359ZM39.6055 83.9863V85.2305H37.0488C37.0625 86.7139 38.0605 88.2451 39.9609 88.8809L39.1953 90.0566C37.8145 89.5781 36.8369 88.6484 36.2969 87.4863C35.75 88.7783 34.7246 89.8174 33.2617 90.3164L32.4824 89.1133C34.4375 88.4502 35.4902 86.8506 35.5039 85.2305H32.9336V83.9863H39.6055ZM51.4316 83.7539C53.3047 83.7539 54.6992 84.916 54.7129 86.543C54.6992 88.1836 53.3047 89.332 51.4316 89.332C49.5449 89.332 48.1504 88.1836 48.1504 86.543C48.1504 84.916 49.5449 83.7539 51.4316 83.7539ZM51.4316 85.0117C50.3926 85.0117 49.627 85.5996 49.627 86.543C49.627 87.5 50.3926 88.1016 51.4316 88.1016C52.4707 88.1016 53.2363 87.5 53.2363 86.543C53.2363 85.5996 52.4707 85.0117 51.4316 85.0117ZM58.2266 83.3574V89.6055H56.6953V83.3574H58.2266ZM58.2266 90.1387V93.3652H51.541V94.3633H58.5957V95.5664H50.0508V92.2441H56.709V91.3281H50.0234V90.1387H58.2266ZM70.3809 83.3574V90.6992H68.8633V87.6777H66.7578V86.4336H68.8633V83.3574H70.3809ZM66.1973 91.0137C68.8223 91.0137 70.4219 91.875 70.4219 93.3652C70.4219 94.8555 68.8223 95.7168 66.1973 95.7168C63.5859 95.7168 61.9863 94.8555 62 93.3652C61.9863 91.875 63.5859 91.0137 66.1973 91.0137ZM66.1973 92.1758C64.4746 92.1758 63.5039 92.5859 63.5039 93.3652C63.5039 94.1309 64.4746 94.541 66.1973 94.541C67.9199 94.541 68.9043 94.1309 68.9043 93.3652C68.9043 92.5859 67.9199 92.1758 66.1973 92.1758ZM64.5703 85.4766C64.5703 86.9805 65.5684 88.498 67.4824 89.1406L66.7168 90.3438C65.3428 89.8789 64.3652 88.9355 63.832 87.7734C63.2852 89.0928 62.2529 90.1455 60.7832 90.6719L59.9902 89.4688C61.9727 88.7852 63.0254 87.1172 63.0254 85.4902V85.3945H60.4551V84.1641H67.127V85.3945H64.5703V85.4766ZM86.7461 92.9824V94.2266H75.4531V92.9824H80.334V90.1387H81.8516V92.9824H86.7461ZM85.7754 84.3555V85.5996H81.8789C81.9268 87.377 83.7588 89.0107 86.2949 89.3867L85.6934 90.5898C83.6016 90.207 81.8926 89.1064 81.0996 87.5684C80.2998 89.127 78.6045 90.2686 76.5469 90.6582L75.9453 89.4551C78.4131 89.0381 80.2314 87.377 80.2793 85.5996H76.3965V84.3555H85.7754ZM93.1719 83.4805C95.9883 83.4805 97.6152 84.2324 97.6289 85.5996C97.6152 86.9805 95.9883 87.7188 93.1719 87.7324C90.3555 87.7188 88.7148 86.9805 88.7148 85.5996C88.7148 84.2324 90.3555 83.4805 93.1719 83.4805ZM93.1719 84.6152C91.2852 84.6152 90.3008 84.957 90.3145 85.5996C90.3008 86.2832 91.2852 86.5977 93.1719 86.6113C95.0859 86.5977 96.0566 86.2832 96.0566 85.5996C96.0566 84.957 95.0859 84.6152 93.1719 84.6152ZM98.8184 88.3203V89.5234H95.8926V90.5078H97.4102V93.5293H90.3828V94.4453H97.752V95.6074H88.8926V92.4492H95.9199V91.6289H88.8789V90.5078H90.4648V89.5234H87.5527V88.3203H98.8184ZM91.9688 90.5078H94.375V89.5234H91.9688V90.5078Z" fill="#121121"/>
</svg>
