<svg width="120" height="130" viewBox="0 0 120 130" fill="none" xmlns="http://www.w3.org/2000/svg">
<rect width="120" height="130" rx="8" fill="#F4F4F4"/>
<path fill-rule="evenodd" clip-rule="evenodd" d="M60 69.5C62.3638 69.5 64.7044 69.0344 66.8883 68.1298C69.0722 67.2253 71.0565 65.8994 72.7279 64.2279C74.3994 62.5565 75.7253 60.5722 76.6298 58.3883C77.5344 56.2044 78 53.8638 78 51.5C78 49.1362 77.5344 46.7956 76.6298 44.6117C75.7253 42.4278 74.3994 40.4435 72.7279 38.7721C71.0565 37.1006 69.0722 35.7748 66.8883 34.8702C64.7044 33.9656 62.3638 33.5 60 33.5C55.2261 33.5 50.6477 35.3964 47.2721 38.7721C43.8964 42.1477 42 46.7261 42 51.5C42 56.2739 43.8964 60.8523 47.2721 64.2279C50.6477 67.6036 55.2261 69.5 60 69.5ZM59.536 58.78L69.536 46.78L66.464 44.22L57.864 54.538L53.414 50.086L50.586 52.914L56.586 58.914L58.134 60.462L59.536 58.78Z" fill="#645E5E"/>
<path d="M25.2773 93.9746V95.9707C26.3506 95.916 27.4307 95.8203 28.4492 95.6699L28.5723 96.791C25.7969 97.2969 22.8301 97.3242 20.6562 97.3242L20.4648 96.0938C21.4287 96.0869 22.5635 96.0801 23.7598 96.0391V93.9746H25.2773ZM27.9434 88.875V90.1055H25.3047C25.373 91.4248 26.4189 92.6143 28.2852 93.0859L27.5879 94.2754C26.125 93.8789 25.0791 93.0244 24.5254 91.9238C23.9785 93.0859 22.9463 93.9746 21.4766 94.3711L20.752 93.2227C22.6182 92.71 23.6436 91.4932 23.7324 90.1055H21.1211V88.875H23.7598V87.4668H25.2773V88.875H27.9434ZM30.7051 87.3574V99.7305H29.1875V87.3574H30.7051ZM38.8809 91.7734V93.3457H43.7754V94.5762H32.5098V93.3457H37.377V91.7734H38.8809ZM38.1289 95.3691C40.8086 95.3691 42.3945 96.1348 42.4082 97.5293C42.3945 98.9238 40.8086 99.7031 38.1289 99.7031C35.4355 99.7031 33.8223 98.9238 33.8223 97.5293C33.8223 96.1348 35.4355 95.3691 38.1289 95.3691ZM38.1289 96.5312C36.3105 96.5312 35.3535 96.873 35.3672 97.5293C35.3535 98.2129 36.3105 98.5547 38.1289 98.5547C39.9062 98.5547 40.877 98.2129 40.8906 97.5293C40.877 96.873 39.9062 96.5312 38.1289 96.5312ZM42.7637 87.9043V89.1211H39.209C39.4551 90.126 40.9385 91.0283 43.2422 91.2539L42.6953 92.4434C40.4531 92.2178 38.7988 91.3428 38.1289 90.0918C37.459 91.3428 35.8184 92.2178 33.5762 92.4434L33.043 91.2539C35.3262 91.0283 36.8096 90.1328 37.0625 89.1211H33.5352V87.9043H42.7637ZM57.6797 87.3574V90.4062H59.4023V91.6641H57.6797V94.5762H56.1621V87.3574H57.6797ZM51.1992 95.0684V96.1348H56.1621V95.0684H57.6797V99.5664H49.6953V95.0684H51.1992ZM51.1992 98.3633H56.1621V97.3105H51.1992V98.3633ZM55.2734 88.5059V89.7227H47.9453V88.5059H50.8574V87.2617H52.375V88.5059H55.2734ZM51.6094 90.1465C53.4004 90.1465 54.6172 91.0078 54.6309 92.3203C54.6172 93.6328 53.4004 94.4941 51.6094 94.4941C49.8047 94.4941 48.5742 93.6328 48.5742 92.3203C48.5742 91.0078 49.8047 90.1465 51.6094 90.1465ZM51.6094 91.2676C50.666 91.2676 50.0508 91.6641 50.0508 92.3203C50.0508 92.9902 50.666 93.373 51.6094 93.373C52.5527 93.373 53.1816 92.9902 53.1816 92.3203C53.1816 91.6641 52.5527 91.2676 51.6094 91.2676ZM66.6074 88.1504C66.6074 88.6016 66.5664 89.0254 66.498 89.4355H68.8633V87.3711H70.3809V94.7129H68.8633V93.2773H65.8965V92.0469H68.8633V90.6523H66.1152C65.2812 92.5732 63.4287 93.9336 60.7695 94.6445L60.1953 93.4277C63.0459 92.6758 64.7207 91.2061 64.9805 89.3945H60.8652V88.1504H66.6074ZM70.3809 95.2324V99.6758H68.8633V96.4355H61.959V95.2324H70.3809ZM77.3809 87.9043V89.4766H80.2656V87.9043H81.7695V93.291H75.877V87.9043H77.3809ZM77.3809 92.0879H80.2656V90.625H77.3809V92.0879ZM85.2012 87.3574V89.8594H86.9238V91.0898H85.2012V93.6875H83.6836V87.3574H85.2012ZM85.2012 94.1797V97.4199H78.6387V98.4043H85.584V99.6074H77.1348V96.3125H83.6836V95.3691H77.1211V94.1797H85.2012ZM98.8457 97.0645V98.2949H87.5527V97.0645H90.4785V94.5215H88.5234V93.291H90.2598V89.627H88.4824V88.4102H97.8613V89.627H96.0566V93.291H97.8203V94.5215H95.8652V97.0645H98.8457ZM91.7773 93.291H94.5527V89.627H91.7773V93.291ZM91.9961 97.0645H94.3477V94.5215H91.9961V97.0645Z" fill="#121121"/>
</svg>
