<svg width="120" height="130" viewBox="0 0 120 130" fill="none" xmlns="http://www.w3.org/2000/svg">
<rect width="120" height="130" rx="8" fill="#F4F4F4"/>
<path fill-rule="evenodd" clip-rule="evenodd" d="M60 69.5C62.3638 69.5 64.7044 69.0344 66.8883 68.1298C69.0722 67.2253 71.0565 65.8994 72.7279 64.2279C74.3994 62.5565 75.7253 60.5722 76.6298 58.3883C77.5344 56.2044 78 53.8638 78 51.5C78 49.1362 77.5344 46.7956 76.6298 44.6117C75.7253 42.4278 74.3994 40.4435 72.7279 38.7721C71.0565 37.1006 69.0722 35.7748 66.8883 34.8702C64.7044 33.9656 62.3638 33.5 60 33.5C55.2261 33.5 50.6477 35.3964 47.2721 38.7721C43.8964 42.1477 42 46.7261 42 51.5C42 56.2739 43.8964 60.8523 47.2721 64.2279C50.6477 67.6036 55.2261 69.5 60 69.5ZM59.536 58.78L69.536 46.78L66.464 44.22L57.864 54.538L53.414 50.086L50.586 52.914L56.586 58.914L58.134 60.462L59.536 58.78Z" fill="#645E5E"/>
<path d="M24.9766 90.3242C24.9766 92.6211 26.0703 94.877 28.0391 95.7383L27.123 96.9551C25.7217 96.2715 24.7373 94.959 24.2109 93.3457C23.6709 95.0479 22.666 96.4629 21.2441 97.1875L20.2871 95.957C22.2969 95.0137 23.418 92.6348 23.4316 90.3242V88.3555H24.9766V90.3242ZM30.7734 87.3574V99.7305H29.2695V92.5801H26.6719V91.3496H29.2695V87.3574H30.7734ZM43.7891 94.6582V95.8477H41.0684V99.7168H39.5371V95.8477H36.7617V99.7168H35.2441V95.8477H32.4961V94.6582H43.7891ZM42.4766 87.7676V91.2266H35.3809V92.4023H42.75V93.6328H33.8496V90.0918H40.918V89.0117H33.8223V87.7676H42.4766ZM57.6797 87.3574V90.4062H59.4023V91.6641H57.6797V94.5762H56.1621V87.3574H57.6797ZM51.1992 95.0684V96.1348H56.1621V95.0684H57.6797V99.5664H49.6953V95.0684H51.1992ZM51.1992 98.3633H56.1621V97.3105H51.1992V98.3633ZM55.2734 88.5059V89.7227H47.9453V88.5059H50.8574V87.2617H52.375V88.5059H55.2734ZM51.6094 90.1465C53.4004 90.1465 54.6172 91.0078 54.6309 92.3203C54.6172 93.6328 53.4004 94.4941 51.6094 94.4941C49.8047 94.4941 48.5742 93.6328 48.5742 92.3203C48.5742 91.0078 49.8047 90.1465 51.6094 90.1465ZM51.6094 91.2676C50.666 91.2676 50.0508 91.6641 50.0508 92.3203C50.0508 92.9902 50.666 93.373 51.6094 93.373C52.5527 93.373 53.1816 92.9902 53.1816 92.3203C53.1816 91.6641 52.5527 91.2676 51.6094 91.2676ZM66.6074 88.1504C66.6074 88.6016 66.5664 89.0254 66.498 89.4355H68.8633V87.3711H70.3809V94.7129H68.8633V93.2773H65.8965V92.0469H68.8633V90.6523H66.1152C65.2812 92.5732 63.4287 93.9336 60.7695 94.6445L60.1953 93.4277C63.0459 92.6758 64.7207 91.2061 64.9805 89.3945H60.8652V88.1504H66.6074ZM70.3809 95.2324V99.6758H68.8633V96.4355H61.959V95.2324H70.3809ZM77.3809 87.9043V89.4766H80.2656V87.9043H81.7695V93.291H75.877V87.9043H77.3809ZM77.3809 92.0879H80.2656V90.625H77.3809V92.0879ZM85.2012 87.3574V89.8594H86.9238V91.0898H85.2012V93.6875H83.6836V87.3574H85.2012ZM85.2012 94.1797V97.4199H78.6387V98.4043H85.584V99.6074H77.1348V96.3125H83.6836V95.3691H77.1211V94.1797H85.2012ZM98.8457 97.0645V98.2949H87.5527V97.0645H90.4785V94.5215H88.5234V93.291H90.2598V89.627H88.4824V88.4102H97.8613V89.627H96.0566V93.291H97.8203V94.5215H95.8652V97.0645H98.8457ZM91.7773 93.291H94.5527V89.627H91.7773V93.291ZM91.9961 97.0645H94.3477V94.5215H91.9961V97.0645Z" fill="#121121"/>
</svg>
